<svg xmlns="http://www.w3.org/2000/svg" style="display:none">
  <symbol id="icon-performance" viewBox="0 0 24 24">
    <path d="M340.5-148.5Q275-177 226-226t-77.5-114.5Q120-406 120-480q0-44 10-85.5t29-78q19-36.5 45.5-68T264-768l272 272-56 56-216-216q-30 36-47 80.5T200-480q0 116 82 198t198 82q116 0 198-82t82-198q0-107-68.5-184.5T520-756v76h-80v-160h40q74 0 139.5 28.5T734-734q49 49 77.5 114.5T840-480q0 74-28.5 139.5T734-226q-49 49-114.5 77.5T480-120q-74 0-139.5-28.5Zm-89-303Q240-463 240-480t11.5-28.5Q263-520 280-520t28.5 11.5Q320-497 320-480t-11.5 28.5Q297-440 280-440t-28.5-11.5Zm200 200Q440-263 440-280t11.5-28.5Q463-320 480-320t28.5 11.5Q520-297 520-280t-11.5 28.5Q497-240 480-240t-28.5-11.5Zm200-200Q640-463 640-480t11.5-28.5Q663-520 680-520t28.5 11.5Q720-497 720-480t-11.5 28.5Q697-440 680-440t-28.5-11.5Z"/>
  </symbol>

  <symbol id="icon-camera" viewBox="0 0 24 24">
    <path d="M456-600h320q-27-69-82.5-118.5T566-788L456-600Zm-92 80 160-276q-11-2-22-3t-22-1q-66 0-123 25t-101 67l108 188ZM170-400h218L228-676q-32 41-50 90.5T160-480q0 21 2.5 40.5T170-400Zm224 228 108-188H184q27 69 82.5 118.5T394-172Zm86 12q66 0 123-25t101-67L596-440 436-164q11 2 21.5 3t22.5 1Zm252-124q32-41 50-90.5T800-480q0-21-2.5-40.5T790-560H572l160 276ZM480-480Zm0 400q-82 0-155-31.5t-127.5-86Q143-252 111.5-325T80-480q0-83 31.5-155.5t86-127Q252-817 325-848.5T480-880q83 0 155.5 31.5t127 86q54.5 54.5 86 127T880-480q0 82-31.5 155t-86 127.5q-54.5 54.5-127 86T480-80Z"/>
  </symbol>

  <symbol id="icon-battery" viewBox="0 0 24 24">
    <path d="M160-240q-50 0-85-35t-35-85v-240q0-50 35-85t85-35h540q50 0 85 35t35 85v240q0 50-35 85t-85 35H160Zm0-80h540q17 0 28.5-11.5T740-360v-240q0-17-11.5-28.5T700-640H160q-17 0-28.5 11.5T120-600v240q0 17 11.5 28.5T160-320Zm700-60v-200h20q17 0 28.5 11.5T920-540v120q0 17-11.5 28.5T880-380h-20Zm-700 20v-240h480v240H160Z"/>
  </symbol>

  <symbol id="icon-pros" viewBox="0 0 24 24">

  </symbol>

  <symbol id="icon-cons" viewBox="0 0 24 24">
    <path d="m336-280 144-144 144 144 56-56-144-144 144-144-56-56-144 144-144-144-56 56 144 144-144 144 56 56ZM480-80q-83 0-156-31.5T197-197q-54-54-85.5-127T80-480q0-83 31.5-156T197-763q54-54 127-85.5T480-880q83 0 156 31.5T763-763q54 54 85.5 127T880-480q0 83-31.5 156T763-197q-54 54-127 85.5T480-80Zm0-80q134 0 227-93t93-227q0-134-93-227t-227-93q-134 0-227 93t-93 227q0 134 93 227t227 93Zm0-320Z"/>
  </symbol>

  <symbol id="icon-display" viewBox="0 0 24 24">
<path d="M280-40q-33 0-56.5-23.5T200-120v-720q0-33 23.5-56.5T280-920h400q33 0 56.5 23.5T760-840v124q18 7 29 22t11 34v80q0 19-11 34t-29 22v404q0 33-23.5 56.5T680-40H280Zm0-80h400v-720H280v720Zm0 0v-720 720Zm228.5-611.5Q520-743 520-760t-11.5-28.5Q497-800 480-800t-28.5 11.5Q440-777 440-760t11.5 28.5Q463-720 480-720t28.5-11.5Z"/>
  </symbol>

  <symbol id="icon-verdict" viewBox="0 0 24 24">
<path d="M160-120v-80h480v80H160Zm226-194L160-540l84-86 228 226-86 86Zm254-254L414-796l86-84 226 226-86 86Zm184 408L302-682l56-56 522 522-56 56Z"/>
  </symbol>

  <symbol id="icon-cash" viewBox="0 0 24 24">
<path d="M560-440q-50 0-85-35t-35-85q0-50 35-85t85-35q50 0 85 35t35 85q0 50-35 85t-85 35ZM280-320q-33 0-56.5-23.5T200-400v-320q0-33 23.5-56.5T280-800h560q33 0 56.5 23.5T920-720v320q0 33-23.5 56.5T840-320H280Zm80-80h400q0-33 23.5-56.5T840-480v-160q-33 0-56.5-23.5T760-720H360q0 33-23.5 56.5T280-640v160q33 0 56.5 23.5T360-400Zm440 240H120q-33 0-56.5-23.5T40-240v-440h80v440h680v80ZM280-400v-320 320Z"/>
  </symbol>

</svg>
